<svg
  id="Layer_1"
  data-name="Layer 1"
  xmlns="http://www.w3.org/2000/svg"
  viewBox="0 0 909.3 198.99"
>
  <defs>
    <style>
      .cls-1,
      .cls-2 {
        fill: #fff;
      }
      .cls-2 {
        font-size: 33px;
        font-family: HelveticaNeue-Medium, Helvetica Neue;
        font-weight: 500;
      }
    </style>
  </defs>
  <path class="cls-1" d="M39.35,49.42V153.05H26.69V49.42Z" />
  <path
    class="cls-1"
    d="M76.1,49.42V67.3h.4A30.35,30.35,0,0,1,89.36,52.13a37.77,37.77,0,0,1,20.28-5.72q10.85,0,18.18,2.81a28.82,28.82,0,0,1,11.74,7.93,29.49,29.49,0,0,1,6.23,12.56,70.89,70.89,0,0,1,1.81,16.67v66.67H134.94V88.39A60.28,60.28,0,0,0,133.74,76a26.09,26.09,0,0,0-4.22-9.94,20.47,20.47,0,0,0-8.13-6.63,30,30,0,0,0-12.76-2.41,32.33,32.33,0,0,0-13.55,2.71A29.3,29.3,0,0,0,85,67.2a34.14,34.14,0,0,0-6.43,11.24A45.79,45.79,0,0,0,76.1,92.6v60.45H63.45V49.42Z"
  />
  <path
    class="cls-1"
    d="M340.5,50.83a45.7,45.7,0,0,1,15.36,11.85,51.19,51.19,0,0,1,9.44,17.37,71.33,71.33,0,0,1,0,42.38,51.28,51.28,0,0,1-9.44,17.37,44.69,44.69,0,0,1-15.36,11.75,53.15,53.15,0,0,1-42,0,44.69,44.69,0,0,1-15.36-11.75,51.28,51.28,0,0,1-9.44-17.37,71.55,71.55,0,0,1,0-42.38,51.19,51.19,0,0,1,9.44-17.37,45.7,45.7,0,0,1,15.36-11.85,52,52,0,0,1,42,0Zm-36.86,10a34.76,34.76,0,0,0-11.34,10,45.39,45.39,0,0,0-6.83,14.16,57.75,57.75,0,0,0,0,32.34,45.39,45.39,0,0,0,6.83,14.16,34.76,34.76,0,0,0,11.34,10,35,35,0,0,0,31.74,0,34.76,34.76,0,0,0,11.34-10,45.39,45.39,0,0,0,6.83-14.16,57.75,57.75,0,0,0,0-32.34,45.39,45.39,0,0,0-6.83-14.16,34.76,34.76,0,0,0-11.34-10,34.88,34.88,0,0,0-31.74,0Z"
  />
  <path
    class="cls-1"
    d="M399,49.42V66.89h.6A39.81,39.81,0,0,1,412.8,51.83q8.13-5.41,20.78-5.42a35.34,35.34,0,0,1,18.58,5q8.34,5,11.15,15.26A31.82,31.82,0,0,1,477,51.43a39.15,39.15,0,0,1,19.28-5q34.34,0,34.34,36.35v70.29H517.94V83.36q0-12.84-5.43-19.58t-19.07-6.73q-8.24,0-13.66,3.12a23.89,23.89,0,0,0-8.64,8.33,35.62,35.62,0,0,0-4.51,12,72.41,72.41,0,0,0-1.31,14v58.64H452.67V82.76a43.32,43.32,0,0,0-1.11-9.94A23.28,23.28,0,0,0,448,64.58a17.22,17.22,0,0,0-6.73-5.52,23.82,23.82,0,0,0-10.24-2A31.32,31.32,0,0,0,417,60a25.56,25.56,0,0,0-9.64,8,35.6,35.6,0,0,0-5.53,12,60.2,60.2,0,0,0-1.8,15.16v57.84H387.4V49.42Z"
  />
  <path
    class="cls-1"
    d="M566.34,49.42V69.1h.4A33.93,33.93,0,0,1,581.1,52.33a43.38,43.38,0,0,1,22.6-5.92q11.84,0,20.58,4.42a42.19,42.19,0,0,1,14.56,12,50.79,50.79,0,0,1,8.64,17.47,79.8,79.8,0,0,1,0,42,50.87,50.87,0,0,1-8.64,17.47,41.27,41.27,0,0,1-14.56,11.85q-8.73,4.32-20.58,4.32a46.54,46.54,0,0,1-11.25-1.41A39.76,39.76,0,0,1,582,150.24a34.28,34.28,0,0,1-8.53-7,29.91,29.91,0,0,1-5.73-9.84h-.4v57.84H554.69V49.42Zm69.39,35.85a44,44,0,0,0-6-14.16A33.15,33.15,0,0,0,619.16,61a29.16,29.16,0,0,0-15.46-3.92q-10.46,0-17.48,3.62A30.33,30.33,0,0,0,575,70.31a38,38,0,0,0-5.93,14.06,80.82,80.82,0,0,0-1.71,16.87,68.09,68.09,0,0,0,1.91,16,41.45,41.45,0,0,0,6.23,14.16,33.43,33.43,0,0,0,11.24,10.15q6.93,3.92,17,3.91a29.15,29.15,0,0,0,15.46-3.91,33.08,33.08,0,0,0,10.54-10.15,43.79,43.79,0,0,0,6-14.16,67.68,67.68,0,0,0,0-31.93Z"
  />
  <path class="cls-1" d="M682.82,9.66V153.05H670.17V9.66Z" />
  <path
    class="cls-1"
    d="M716.46,118.81A38.88,38.88,0,0,0,722.59,132a35,35,0,0,0,10.64,9.64,29.82,29.82,0,0,0,15.47,3.81q13.84,0,21.69-7.23t10.84-19.28h12.65q-4,17.68-14.76,27.32t-30.42,9.64q-12.26,0-21.19-4.32A38.94,38.94,0,0,1,713,139.7a51.63,51.63,0,0,1-8.34-17.47,79.8,79.8,0,0,1-2.71-21,75.66,75.66,0,0,1,2.71-20.09A54.11,54.11,0,0,1,713,63.58a41.84,41.84,0,0,1,14.56-12.45q8.93-4.71,21.19-4.72,12.45,0,21.29,5a42.51,42.51,0,0,1,14.36,13.15,54.69,54.69,0,0,1,7.93,18.68,82.6,82.6,0,0,1,2,21.39H714.56A56.14,56.14,0,0,0,716.46,118.81Zm62.66-38.66A37.81,37.81,0,0,0,772.6,68.4a32.29,32.29,0,0,0-10.25-8.23,29.24,29.24,0,0,0-13.65-3.12,29.7,29.7,0,0,0-13.86,3.12A32.25,32.25,0,0,0,724.6,68.4a41.14,41.14,0,0,0-6.73,11.85A57.53,57.53,0,0,0,714.56,94h67.07A45.61,45.61,0,0,0,779.12,80.15Z"
  />
  <path
    class="cls-1"
    d="M852.53,49.42V60.07H831.44V130q0,6.22,1.71,9.74t8.53,3.92a98.64,98.64,0,0,0,10.85-.61v10.65c-1.88,0-3.75.06-5.63.2s-3.74.2-5.62.2q-12.64,0-17.67-4.92T818.79,131V60.07H800.71V49.42h18.08V9.66h12.65V49.42Z"
  />
  <path
    class="cls-1"
    d="M246.09,106.71a58.67,58.67,0,0,1-2,10.7,45.61,45.61,0,0,1-6.83,14.16,34.8,34.8,0,0,1-11.35,10,34.94,34.94,0,0,1-31.73,0,34.8,34.8,0,0,1-11.35-10A45.61,45.61,0,0,1,176,117.41a57.75,57.75,0,0,1,0-32.34,45.61,45.61,0,0,1,6.83-14.16,34.8,34.8,0,0,1,11.35-10,34.85,34.85,0,0,1,31.73,0,34.8,34.8,0,0,1,11.35,10,45.61,45.61,0,0,1,6.83,14.16,57,57,0,0,1,1.67,7.69H258.5a66.09,66.09,0,0,0-2.68-12.71,51.36,51.36,0,0,0-9.44-17.37A45.74,45.74,0,0,0,231,50.83a52,52,0,0,0-42,0,45.64,45.64,0,0,0-15.37,11.85,51.19,51.19,0,0,0-9.44,17.37,71.55,71.55,0,0,0,0,42.38,51.28,51.28,0,0,0,9.44,17.37A44.63,44.63,0,0,0,189,151.55a53.13,53.13,0,0,0,42,0,44.72,44.72,0,0,0,15.37-11.75,51.46,51.46,0,0,0,9.44-17.37,66.91,66.91,0,0,0,3-15.72Z"
  />
  <rect class="cls-1" x="714.56" y="9.66" width="64.6" height="10.65" />
  <!-- <text class="cls-2" transform="translate(26.69 187.69)">
    a podcast about design history
  </text> -->
</svg>
